<?xml version="1.0" encoding="utf-8"?>
<!-- Generator: Adobe Illustrator 16.0.4, SVG Export Plug-In . SVG Version: 6.00 Build 0)  -->
<!DOCTYPE svg PUBLIC "-//W3C//DTD SVG 1.1//EN" "http://www.w3.org/Graphics/SVG/1.1/DTD/svg11.dtd">
<svg version="1.1" id="Layer_1" xmlns="http://www.w3.org/2000/svg" xmlns:xlink="http://www.w3.org/1999/xlink" x="0px" y="0px"
	 width="295.372px" height="74.375px" viewBox="0 0 295.372 74.375" enable-background="new 0 0 295.372 74.375"
	 xml:space="preserve">
<g>
	<path fill="#D8E02D" d="M59.636,6.679c-4.146,5.785-8.565,9.739-13.265,11.862c-5.387,2.417-10.547,2.113-15.475-0.896
		c0.461-0.719,0.953-1.443,1.475-2.172c4.123-5.756,8.641-9.686,13.552-11.791c5.267-2.233,10.321-1.941,15.168,0.86
		C60.634,5.251,60.148,5.962,59.636,6.679"/>
	<path fill="#CADB2D" d="M37.696,2.398c-0.595,6.594-2.272,11.848-5.036,15.766c-3.18,4.478-7.46,6.666-12.829,6.581
		c0.031-0.794,0.084-1.607,0.158-2.437c0.592-6.558,2.351-11.846,5.304-15.845C28.451,2.183,32.65,0.041,37.857,0
		C37.822,0.783,37.771,1.582,37.696,2.398"/>
	<path fill="#BAD533" d="M17.752,9.765c2.521,5.578,3.562,10.572,3.12,14.984c-0.521,5.052-2.97,8.762-7.332,11.137
		c-0.337-0.653-0.663-1.332-0.981-2.033c-2.51-5.55-3.5-10.608-2.942-15.17c0.596-4.883,3-8.521,7.173-10.922
		C17.119,8.407,17.439,9.074,17.752,9.765"/>
	<path fill="#ABD039" d="M4.238,26.632c4.613,3.217,7.782,6.672,9.508,10.36c1.963,4.234,1.774,8.312-0.552,12.24
		c-0.573-0.36-1.149-0.742-1.729-1.146c-4.59-3.2-7.75-6.725-9.455-10.59c-1.826-4.134-1.638-8.135,0.527-11.993
		C3.1,25.859,3.668,26.234,4.238,26.632"/>
	<path fill="#9FCC3C" d="M1.855,48.421c5.119-0.268,9.332,0.443,12.639,2.133c3.781,1.947,5.928,4.986,6.454,9.113
		c-0.614,0.063-1.241,0.11-1.888,0.145c-5.094,0.265-9.34-0.502-12.729-2.327C2.707,55.534,0.601,52.548,0,48.562
		C0.603,48.501,1.221,48.455,1.855,48.421"/>
	<path fill="#92C841" d="M13.269,66.119c3.537-2.984,6.957-4.771,10.256-5.361c3.783-0.662,6.986,0.353,9.614,3.035
		c-0.406,0.381-0.831,0.759-1.277,1.133c-3.519,2.972-6.992,4.735-10.427,5.271c-3.674,0.576-6.815-0.424-9.425-2.963
		C12.412,66.861,12.832,66.49,13.269,66.119"/>
	<path fill="#85C442" d="M34.046,72.878c0.39-4.112,1.453-7.387,3.188-9.824c1.996-2.785,4.672-4.14,8.024-4.072
		c-0.022,0.497-0.058,1.003-0.106,1.521c-0.387,4.091-1.5,7.387-3.354,9.873c-1.982,2.662-4.609,3.988-7.859,3.998
		C33.962,73.886,33.998,73.388,34.046,72.878"/>
	<path fill="#78C144" d="M52.237,62.777c-2.388-2.74-3.829-5.402-4.33-7.986c-0.565-2.961,0.194-5.489,2.267-7.582
		c0.306,0.314,0.605,0.644,0.906,0.989c2.373,2.726,3.799,5.433,4.262,8.12c0.494,2.879-0.252,5.357-2.215,7.434
		C52.828,63.441,52.532,63.117,52.237,62.777"/>
	<path fill="#6BBE46" d="M56.367,41.943c-3.111,0.39-5.713,0.143-7.805-0.742c-2.394-1.02-3.838-2.779-4.34-5.274
		c0.371-0.066,0.752-0.123,1.144-0.171c3.097-0.389,5.722-0.108,7.869,0.855c2.299,1.031,3.715,2.76,4.259,5.164
		C57.129,41.839,56.752,41.896,56.367,41.943"/>
	<path fill="#5CBA48" d="M40.771,28.266c-0.932,2.468-2.139,4.306-3.618,5.515c-1.698,1.38-3.575,1.761-5.628,1.156
		c0.098-0.301,0.204-0.608,0.321-0.918c0.928-2.456,2.168-4.297,3.729-5.518c1.67-1.306,3.51-1.679,5.514-1.138
		C40.994,27.66,40.888,27.96,40.771,28.266"/>
	<path fill="#4EB748" d="M23.079,37.432c1.698,1.301,2.845,2.669,3.438,4.101c0.674,1.642,0.533,3.189-0.418,4.642
		c-0.213-0.144-0.426-0.301-0.639-0.464c-1.691-1.295-2.832-2.69-3.415-4.187c-0.623-1.604-0.483-3.121,0.405-4.551
		C22.659,37.118,22.868,37.271,23.079,37.432"/>
	<path fill="#3FB54A" d="M29.524,55.49c0.956-1.335,1.978-2.248,3.062-2.738c1.244-0.557,2.434-0.488,3.571,0.207
		c-0.108,0.166-0.22,0.333-0.34,0.502c-0.952,1.328-1.995,2.234-3.128,2.721c-1.216,0.515-2.383,0.449-3.501-0.2
		C29.295,55.82,29.405,55.656,29.524,55.49"/>
	<path fill="#434244" d="M163.385,43.533h12.37c-0.169,3.43-1.416,6.258-3.71,8.411c-2.417,2.268-5.605,3.419-9.474,3.419
		c-2.05,0-3.957-0.355-5.671-1.055c-1.709-0.697-3.277-1.761-4.655-3.156c-1.37-1.416-2.427-3.059-3.142-4.883
		c-0.717-1.828-1.082-3.804-1.082-5.872c0-4.636,1.367-8.456,4.058-11.353c2.685-2.886,6.213-4.349,10.492-4.349
		c2.567,0,4.903,0.564,6.942,1.678c2.041,1.115,3.784,2.783,5.186,4.955l0.318,0.497l3.141-2.72l-0.2-0.362
		c-1.45-2.631-3.545-4.654-6.228-6.011c-2.66-1.346-5.891-2.029-9.601-2.029c-2.737,0-5.26,0.474-7.495,1.413
		c-2.242,0.94-4.277,2.376-6.05,4.266c-1.644,1.743-2.917,3.819-3.787,6.17c-0.866,2.346-1.307,4.869-1.307,7.502
		c0,5.736,1.748,10.445,5.196,13.994c3.453,3.554,8.025,5.355,13.588,5.355c5.598,0,10.063-1.688,13.272-5.014
		c3.204-3.322,4.829-7.964,4.829-13.797v-0.904h-16.992V43.533z M200.857,38.778c1.757-1.696,2.647-4.04,2.647-6.967
		c0-3.431-1.038-6.038-3.091-7.752c-2.021-1.689-5.075-2.547-9.072-2.547h-7.111v36.935h4.287V41.325h1.192l12.606,17.122h5.261
		l-12.929-17.155C197.221,41.123,199.305,40.278,200.857,38.778 M188.518,37.628V25.382h2.775c2.821,0,4.831,0.488,5.975,1.448
		c1.115,0.941,1.681,2.584,1.681,4.883c0,2.165-0.542,3.703-1.613,4.57c-1.103,0.892-3.135,1.345-6.042,1.345H188.518z
		 M239.768,26.269c-1.84-1.805-3.975-3.199-6.342-4.145c-2.367-0.943-4.937-1.421-7.64-1.421c-2.687,0-5.246,0.473-7.603,1.41
		c-2.36,0.936-4.492,2.336-6.332,4.158c-1.873,1.853-3.317,3.977-4.295,6.311c-0.981,2.333-1.477,4.847-1.477,7.472
		c0,2.592,0.496,5.08,1.477,7.397c0.978,2.317,2.424,4.431,4.297,6.287c1.873,1.838,4.022,3.256,6.388,4.219
		c2.366,0.96,4.905,1.447,7.545,1.447c2.637,0,5.181-0.487,7.556-1.447c2.375-0.961,4.537-2.38,6.426-4.219
		c1.856-1.823,3.297-3.929,4.285-6.262c0.988-2.334,1.489-4.833,1.489-7.422c0-2.625-0.498-5.138-1.478-7.472
		C243.087,30.249,241.641,28.126,239.768,26.269 M239.905,45.979c-0.765,1.868-1.882,3.558-3.31,5.018
		c-1.469,1.45-3.14,2.57-4.966,3.325c-1.829,0.756-3.795,1.138-5.844,1.138c-2.101,0-4.073-0.378-5.867-1.127
		c-1.794-0.746-3.44-1.867-4.888-3.33c-1.451-1.482-2.571-3.173-3.329-5.024c-0.756-1.851-1.14-3.843-1.14-5.925
		c0-2.099,0.384-4.092,1.14-5.926c0.758-1.836,1.879-3.527,3.323-5.019c1.468-1.449,3.13-2.569,4.943-3.326
		c1.811-0.755,3.768-1.138,5.817-1.138c2.065,0,4.045,0.384,5.88,1.139c1.835,0.756,3.491,1.874,4.924,3.319
		c1.451,1.482,2.57,3.172,3.328,5.023c0.758,1.852,1.141,3.844,1.141,5.928C241.059,42.117,240.671,44.113,239.905,45.979
		 M258.559,49.762l-10.002-28.25H243.7l14.788,39.253l15.277-39.253h-4.687L258.559,49.762z M295.372,25.603v-4.091h-18.81v36.935
		h18.81v-4.09H280.85V39.903h14.522v-4.091H280.85V25.603H295.372z"/>
	<polygon fill="#434244" points="112.407,58.507 116.307,58.507 134.576,21.503 111.803,21.503 111.803,24.366 129.713,24.366 	"/>
	<path fill="#434244" d="M97.341,36.642l10.026-15.172H84.594v2.862h17.184l-7.828,11.886l0.754,2.981
		c2.57,0.026,5.313,0.65,6.762,2.149c1.477,1.532,2.215,3.653,2.215,6.366c0,2.676-0.73,4.772-2.191,6.283
		c-1.459,1.515-3.482,2.272-6.066,2.272c-2.499,0-4.434-0.68-5.801-2.035c-1.368-1.358-2.129-3.336-2.281-5.938l-3.646-0.028
		c0.27,3.637,1.41,6.428,3.42,8.375c2.01,1.947,4.778,2.921,8.309,2.921c3.598,0,6.46-1.075,8.589-3.227
		c2.127-2.149,3.19-5.022,3.19-8.622c0-2.471-0.612-4.594-1.836-6.366C104.402,39.955,101.93,37.589,97.341,36.642"/>
</g>
</svg>
