<?xml version="1.0" encoding="utf-8"?>
<!-- Generator: Adobe Illustrator 16.0.4, SVG Export Plug-In . SVG Version: 6.00 Build 0)  -->
<!DOCTYPE svg PUBLIC "-//W3C//DTD SVG 1.1//EN" "http://www.w3.org/Graphics/SVG/1.1/DTD/svg11.dtd">
<svg version="1.1" id="Layer_1" xmlns="http://www.w3.org/2000/svg" xmlns:xlink="http://www.w3.org/1999/xlink" x="0px" y="0px"
	 width="15.589px" height="26.732px" viewBox="1.205 15.075 15.589 26.732" enable-background="new 1.205 15.075 15.589 26.732"
	 xml:space="preserve">
<g>
	<path fill="#CCCCCC" d="M16.794,17.298c0,0.232-0.089,0.438-0.268,0.616L6,28.44l10.527,10.527
		c0.178,0.178,0.268,0.384,0.268,0.615c0,0.232-0.089,0.438-0.268,0.617l-1.339,1.338c-0.179,0.18-0.384,0.269-0.616,0.269
		s-0.438-0.089-0.616-0.269L1.473,29.057c-0.179-0.179-0.268-0.384-0.268-0.616s0.089-0.438,0.268-0.615l12.482-12.483
		c0.178-0.178,0.384-0.268,0.616-0.268s0.438,0.089,0.616,0.268l1.339,1.339C16.705,16.86,16.794,17.066,16.794,17.298z"/>
</g>
</svg>
