<?xml version="1.0" encoding="utf-8"?>
<!-- Generator: Adobe Illustrator 16.0.4, SVG Export Plug-In . SVG Version: 6.00 Build 0)  -->
<!DOCTYPE svg PUBLIC "-//W3C//DTD SVG 1.1//EN" "http://www.w3.org/Graphics/SVG/1.1/DTD/svg11.dtd">
<svg version="1.1" id="Layer_1" xmlns="http://www.w3.org/2000/svg" xmlns:xlink="http://www.w3.org/1999/xlink" x="0px" y="0px"
	 width="254.232px" height="43.869px" viewBox="0 0 254.232 43.869" enable-background="new 0 0 254.232 43.869"
	 xml:space="preserve">
<g>
	<path d="M0,0h8.385l7.169,36.457h0.122V0h5.711v43.869h-8.75L5.469,6.441H5.347v37.428H0V0z"/>
	<path d="M34.756,0h7.048l8.932,43.869h-6.076l-2.005-11.18h-9.479l-2.005,11.18h-6.076L34.756,0z M34.088,27.585h7.716
		L38.038,6.441h-0.122L34.088,27.585z"/>
	<path d="M54.443,0h6.076v19.99h0.122L70.241,0h6.076L66.109,20.598l10.937,23.271h-6.805l-9.6-21.935H60.52v21.935h-6.076V0z"/>
	<path d="M79.964,0h16.527v5.104H86.041v13.732h9.843v5.104h-9.843v14.825h10.451v5.104H79.964V0z"/>
	<path d="M99.895,0h9.783c9.843,0,10.633,3.281,10.633,16.041v13.063c0,11.241-2.005,14.765-11.605,14.765h-8.811V0z
		 M105.971,38.765h2.917c4.496,0,5.347-2.37,5.347-9.904V13.792c0-6.501-0.668-8.688-5.833-8.688h-2.43V38.765z"/>
	<path d="M137.507,0h9.418c8.871,0,9.782,2.37,9.782,11.97c0,5.894-0.79,8.446-5.772,9.965v0.122
		c4.132,0.425,5.529,2.552,5.529,6.684v9.54c0,1.58,0,3.767,0.364,5.59h-5.711c-0.607-1.094-0.729-2.188-0.729-3.949v-9.904
		c0-4.131-0.729-5.225-4.739-5.225h-2.066v19.079h-6.076V0z M143.583,19.687h1.58c4.8,0,5.469-0.912,5.469-7.474
		c0-6.501-0.365-7.109-4.132-7.109h-2.917V19.687z"/>
	<path d="M161.934,0h16.527v5.104H168.01v13.732h9.843v5.104h-9.843v14.825h10.451v5.104h-16.527V0z"/>
	<path d="M179.98,0h20.658v5.104h-7.291v38.765h-6.076V5.104h-7.291V0z"/>
	<path d="M207.262,0h7.048l8.932,43.869h-6.076l-2.005-11.18h-9.479l-2.005,11.18h-6.076L207.262,0z M206.594,27.585h7.716
		l-3.767-21.145h-0.122L206.594,27.585z"/>
	<path d="M226.768,0h6.076v43.869h-6.076V0z"/>
	<path d="M237.948,0h6.076v38.765h10.208v5.104h-16.284V0z"/>
</g>
</svg>
