<?xml version="1.0" encoding="utf-8"?>
<!-- Generator: Adobe Illustrator 16.0.4, SVG Export Plug-In . SVG Version: 6.00 Build 0)  -->
<!DOCTYPE svg PUBLIC "-//W3C//DTD SVG 1.1//EN" "http://www.w3.org/Graphics/SVG/1.1/DTD/svg11.dtd">
<svg version="1.1" id="Layer_1" xmlns="http://www.w3.org/2000/svg" xmlns:xlink="http://www.w3.org/1999/xlink" x="0px" y="0px"
	 width="15.589px" height="26.732px" viewBox="1.553 0.64 15.589 26.732" enable-background="new 1.553 0.64 15.589 26.732"
	 xml:space="preserve">
<g>
	<path fill="#CCCCCC" d="M17.143,14.006c0,0.232-0.089,0.438-0.268,0.616L4.393,27.104c-0.179,0.179-0.384,0.268-0.616,0.268
		s-0.438-0.089-0.616-0.268l-1.339-1.34c-0.179-0.178-0.268-0.384-0.268-0.616c0-0.231,0.089-0.437,0.268-0.615l10.527-10.527
		L1.822,3.479C1.643,3.301,1.553,3.095,1.553,2.863s0.089-0.438,0.268-0.616l1.339-1.339C3.339,0.729,3.545,0.64,3.777,0.64
		s0.438,0.089,0.616,0.268L16.875,13.39C17.053,13.569,17.143,13.774,17.143,14.006z"/>
</g>
</svg>
